<svg id="Layer_1" data-name="Layer 1" xmlns="http://www.w3.org/2000/svg" xmlns:xlink="http://www.w3.org/1999/xlink" width="1920" height="817.9" viewBox="0 0 1920 817.9"><defs><clipPath id="clip-path"><rect x="-1820.4" y="-3917.9" width="665.8" height="3993.44" fill="none"/></clipPath></defs><title>error-background</title><g clip-path="url(#clip-path)"><path d="M43.4-3088.9s-231.3,157-507.1-94.1c-80.8-73.5-164.3-101.6-249.7-103.5l-11.5-514.9s-219.2,58.2-512.6-19-579.3,23.6-878.8,44.7-632.7-25.7-632.7-25.7v671.7c333.3,137.9,643.3,56.5,643.3,56.5,41.9-7.5,82-13.2,119.7-17.4l-135.6,1851.8a898.7,898.7,0,0,0,77.3,97l-13.4-3.6-72.7,993.1C-1812.9,76.1-1495-21.7-1495-21.7c126.1-23.8,234.7-24.7,310-20.1a580.7,580.7,0,0,1,168.2,36c118.5,44,367.4,110.2,550.3,63.3C-253.2,2.7-100.1,55-100.1,55L-39-997.6s-20,6.2-55.7,11.4Z" fill="#0dc3ff"/></g><path d="M1570.5,711.4a28.7,28.7,0,0,1-6.3-34.5,28.5,28.5,0,0,0-5.5,42.8,28.7,28.7,0,0,0,42.8.1,29.7,29.7,0,0,0,4.1-5.9A28.7,28.7,0,0,1,1570.5,711.4Z" fill="none" stroke="#5d2d90" stroke-linecap="round" stroke-linejoin="round" stroke-width="3.59"/><path d="M440.2,111.3a28.7,28.7,0,0,1-34.6,6.3,27.7,27.7,0,0,0,8,8,28.7,28.7,0,0,0,35-45.3,36.9,36.9,0,0,0-5.9-4.1A28.8,28.8,0,0,1,440.2,111.3Z" fill="none" stroke="#5d2d90" stroke-linecap="round" stroke-linejoin="round" stroke-width="3.59"/><polygon points="1543 442.3 1551.1 444.1 1558.8 441.2 1557.1 449.3 1560 457 1551.9 455.3 1544.2 458.1 1545.9 450.1 1543 442.3" fill="none" stroke="#5d2d90" stroke-linecap="round" stroke-linejoin="round" stroke-width="3.59"/><polygon points="105.6 448.1 113.7 449.9 121.4 447 119.7 455 122.5 462.8 114.5 461 106.8 463.9 108.5 455.8 105.6 448.1" fill="none" stroke="#5d2d90" stroke-linecap="round" stroke-linejoin="round" stroke-width="3.59"/><polygon points="299 284.2 307 286 314.8 283.1 313 291.1 315.9 298.9 307.8 297.1 300.1 300 301.8 291.9 299 284.2" fill="none" stroke="#5d2d90" stroke-linecap="round" stroke-linejoin="round" stroke-width="3.59"/><polygon points="749.1 49.4 757.2 51.2 764.9 48.3 763.2 56.4 766.1 64.1 758 62.3 750.3 65.2 752 57.1 749.1 49.4" fill="none" stroke="#5d2d90" stroke-linecap="round" stroke-linejoin="round" stroke-width="3.59"/><polygon points="1000.8 68.9 1008.8 70.6 1016.6 67.8 1014.8 75.8 1017.7 83.6 1009.6 81.8 1001.9 84.7 1003.6 76.6 1000.8 68.9" fill="none" stroke="#5d2d90" stroke-linecap="round" stroke-linejoin="round" stroke-width="3.59"/><polygon points="732.2 681.7 740.3 683.4 748 680.5 746.3 688.6 749.1 696.3 741.1 694.6 733.4 697.5 735.1 689.4 732.2 681.7" fill="none" stroke="#5d2d90" stroke-linecap="round" stroke-linejoin="round" stroke-width="3.59"/><polygon points="1075.7 767.4 1083.7 769.2 1091.5 766.3 1089.7 774.4 1092.6 782.1 1084.5 780.3 1076.8 783.2 1078.6 775.2 1075.7 767.4" fill="none" stroke="#5d2d90" stroke-linecap="round" stroke-linejoin="round" stroke-width="3.59"/><polygon points="323.1 669.5 331.2 671.3 338.9 668.4 337.1 676.5 340 684.2 332 682.4 324.2 685.3 326 677.3 323.1 669.5" fill="none" stroke="#5d2d90" stroke-linecap="round" stroke-linejoin="round" stroke-width="3.59"/><polygon points="1311.9 744.7 1320 746.5 1327.7 743.6 1326 751.7 1328.8 759.4 1320.8 757.6 1313 760.5 1314.8 752.5 1311.9 744.7" fill="none" stroke="#5d2d90" stroke-linecap="round" stroke-linejoin="round" stroke-width="3.59"/><polygon points="1816.9 399.7 1824.9 401.5 1832.6 398.6 1830.9 406.7 1833.8 414.4 1825.7 412.6 1818 415.5 1819.7 407.4 1816.9 399.7" fill="none" stroke="#5d2d90" stroke-linecap="round" stroke-linejoin="round" stroke-width="3.59"/><polygon points="1597.1 60.4 1605.2 62.2 1612.9 59.3 1611.2 67.4 1614 75.1 1606 73.3 1598.3 76.2 1600 68.2 1597.1 60.4" fill="none" stroke="#5d2d90" stroke-linecap="round" stroke-linejoin="round" stroke-width="3.59"/><polygon points="1810.6 697.5 1814.1 712.9 1825.3 724 1809.9 727.4 1798.8 738.6 1795.4 723.2 1784.1 712.1 1799.5 708.7 1810.6 697.5" fill="none" stroke="#5d2d90" stroke-linecap="round" stroke-linejoin="round" stroke-width="3.59"/><polygon points="1423.7 609.1 1427.2 624.5 1438.4 635.6 1423 639.1 1411.9 650.3 1408.4 634.9 1397.2 623.8 1412.6 620.3 1423.7 609.1" fill="none" stroke="#5d2d90" stroke-linecap="round" stroke-linejoin="round" stroke-width="3.59"/><polygon points="562.3 183.1 565.8 198.5 577 209.6 561.6 213.1 550.5 224.3 547 208.9 535.8 197.8 551.2 194.4 562.3 183.1" fill="none" stroke="#5d2d90" stroke-linecap="round" stroke-linejoin="round" stroke-width="3.59"/><polygon points="140.6 733.6 144.1 749 155.3 760.1 139.9 763.5 128.8 774.8 125.3 759.4 114.1 748.3 129.5 744.8 140.6 733.6" fill="none" stroke="#5d2d90" stroke-linecap="round" stroke-linejoin="round" stroke-width="3.59"/><polygon points="498.6 704.5 502.1 719.9 513.3 731 497.9 734.5 486.8 745.7 483.3 730.3 472.1 719.2 487.5 715.8 498.6 704.5" fill="none" stroke="#5d2d90" stroke-linecap="round" stroke-linejoin="round" stroke-width="3.59"/><polygon points="231.6 47.8 222.2 60.5 221.1 76.2 208.4 66.8 192.7 65.7 202.1 53 203.2 37.3 215.9 46.7 231.6 47.8" fill="none" stroke="#5d2d90" stroke-linecap="round" stroke-linejoin="round" stroke-width="3.59"/><polygon points="1844.8 121.4 1835.4 134 1834.2 149.8 1821.6 140.4 1805.8 139.2 1815.3 126.6 1816.4 110.8 1829 120.3 1844.8 121.4" fill="none" stroke="#5d2d90" stroke-linecap="round" stroke-linejoin="round" stroke-width="3.59"/><polygon points="1687.2 329.6 1671.5 328.5 1657.7 336.1 1658.7 320.4 1651.1 306.5 1666.9 307.6 1680.7 300 1679.6 315.7 1687.2 329.6" fill="none" stroke="#5d2d90" stroke-linecap="round" stroke-linejoin="round" stroke-width="3.59"/><circle cx="1690" cy="563.2" r="54" transform="matrix(0.95, -0.33, 0.33, 0.95, -91.29, 581.03)" fill="none" stroke="#5d2d90" stroke-linecap="round" stroke-linejoin="round" stroke-width="3.59"/><line x1="1695" y1="539.6" x2="1657.2" y2="522.7" fill="none" stroke="#5d2d90" stroke-linecap="round" stroke-linejoin="round" stroke-width="3.59"/><line x1="1700.3" y1="556.2" x2="1646" y2="531.9" fill="none" stroke="#5d2d90" stroke-linecap="round" stroke-linejoin="round" stroke-width="3.59"/><line x1="1691" y1="524.7" x2="1669.2" y2="515" fill="none" stroke="#5d2d90" stroke-linecap="round" stroke-linejoin="round" stroke-width="3.59"/><line x1="1738.3" y1="587" x2="1700.5" y2="570.3" fill="none" stroke="#5d2d90" stroke-linecap="round" stroke-linejoin="round" stroke-width="3.59"/><line x1="1742.2" y1="577.5" x2="1720.2" y2="567.8" fill="none" stroke="#5d2d90" stroke-linecap="round" stroke-linejoin="round" stroke-width="3.59"/><line x1="1675" y1="577.7" x2="1637.2" y2="561" fill="none" stroke="#5d2d90" stroke-linecap="round" stroke-linejoin="round" stroke-width="3.59"/><line x1="1659.1" y1="583.3" x2="1637.2" y2="573.6" fill="none" stroke="#5d2d90" stroke-linecap="round" stroke-linejoin="round" stroke-width="3.59"/><line x1="1732.4" y1="596.4" x2="1710.5" y2="586.7" fill="none" stroke="#5d2d90" stroke-linecap="round" stroke-linejoin="round" stroke-width="3.59"/><circle cx="166.8" cy="208.3" r="54" transform="translate(-71.7 328) rotate(-78)" fill="none" stroke="#5d2d90" stroke-linecap="round" stroke-linejoin="round" stroke-width="3.59"/><line x1="149.1" y1="191.9" x2="115.1" y2="215.6" fill="none" stroke="#5d2d90" stroke-linecap="round" stroke-linejoin="round" stroke-width="3.59"/><line x1="166.1" y1="195.9" x2="117.3" y2="229.9" fill="none" stroke="#5d2d90" stroke-linecap="round" stroke-linejoin="round" stroke-width="3.59"/><line x1="134.4" y1="187.6" x2="114.7" y2="201.3" fill="none" stroke="#5d2d90" stroke-linecap="round" stroke-linejoin="round" stroke-width="3.59"/><line x1="212.1" y1="179.2" x2="178.3" y2="203.1" fill="none" stroke="#5d2d90" stroke-linecap="round" stroke-linejoin="round" stroke-width="3.59"/><line x1="205.9" y1="171" x2="186.3" y2="184.8" fill="none" stroke="#5d2d90" stroke-linecap="round" stroke-linejoin="round" stroke-width="3.59"/><line x1="171.5" y1="228.7" x2="137.7" y2="252.5" fill="none" stroke="#5d2d90" stroke-linecap="round" stroke-linejoin="round" stroke-width="3.59"/><line x1="168.1" y1="245.2" x2="148.5" y2="259" fill="none" stroke="#5d2d90" stroke-linecap="round" stroke-linejoin="round" stroke-width="3.59"/><line x1="217.1" y1="189.1" x2="197.5" y2="202.9" fill="none" stroke="#5d2d90" stroke-linecap="round" stroke-linejoin="round" stroke-width="3.59"/><path d="M214.5,182.9c32-8.3,54.8-10.8,56.8-5.1,2.8,8.2-40,30.6-95.6,50.1s-103.1,28.4-106,20.2c-1.9-5.4,15.5-16.7,43.2-29.3" fill="none" stroke="#5d2d90" stroke-linecap="round" stroke-linejoin="round" stroke-width="3.59"/><line x1="1283.9" y1="201.5" x2="1132.9" y2="255.8" fill="none" stroke="#5d2d90" stroke-linecap="round" stroke-linejoin="round" stroke-width="3.59"/><line x1="1328.8" y1="248.1" x2="1224" y2="578.5" fill="none" stroke="#5d2d90" stroke-linecap="round" stroke-linejoin="round" stroke-width="3.59"/><path d="M1431.8,197.9c22.3,28.6,33,51.9,25.5,59.8C1445.7,270,1394,240.2,1342,191s-84.7-99-73-111.4c7.7-8,32.5,2,63.3,23.7" fill="none" stroke="#5d2d90" stroke-linecap="round" stroke-linejoin="round" stroke-width="3.59"/><path d="M1411.2,197.7a53.5,53.5,0,1,0-77.8-73.6" fill="none" stroke="#5d2d90" stroke-linecap="round" stroke-linejoin="round" stroke-width="3.59"/><path d="M1294.8,140.4s14.5,81.8,102.7,96.3" fill="none" stroke="#5d2d90" stroke-linecap="round" stroke-linejoin="round" stroke-width="3.59"/><circle cx="363.5" cy="485" r="49.6" fill="none" stroke="#5d2d90" stroke-linecap="round" stroke-linejoin="round" stroke-width="3.59"/><circle cx="341.7" cy="463.3" r="8.6" fill="none" stroke="#5d2d90" stroke-linecap="round" stroke-linejoin="round" stroke-width="3.59"/><circle cx="391.9" cy="506" r="8.6" fill="none" stroke="#5d2d90" stroke-linecap="round" stroke-linejoin="round" stroke-width="3.59"/><circle cx="352.2" cy="506" r="17.5" fill="none" stroke="#5d2d90" stroke-linecap="round" stroke-linejoin="round" stroke-width="3.59"/><circle cx="393.3" cy="471.7" r="8.4" fill="none" stroke="#5d2d90" stroke-linecap="round" stroke-linejoin="round" stroke-width="3.59"/><text transform="translate(816.1 375.4) rotate(20.6)" font-size="155" fill="#5d2d90" font-family="MuseoSansRounded-1000, Museo Sans Rounded" font-weight="100">4<tspan x="95.9" y="0" letter-spacing="0.02em">0</tspan><tspan x="194.8" y="0" letter-spacing="0em">4</tspan></text><text transform="translate(732.2 454.7) rotate(20.6)" font-size="63.58" fill="#5d2d90" font-family="MuseoSansRounded-500, Museo Sans Rounded" font-weight="500"><tspan letter-spacing="0em">l</tspan><tspan x="16.5" y="0">ost in spa</tspan><tspan x="288.3" y="0" letter-spacing="0em">c</tspan><tspan x="321.8" y="0" letter-spacing="0em">e</tspan></text></svg>