<svg xmlns="http://www.w3.org/2000/svg" width="1920" height="817.9" viewBox="0 0 1920 817.9"><defs><clipPath id="a"><path fill="none" d="M-1820.4-3917.9h665.8V75.54h-665.8z"/></clipPath></defs><g clip-path="url(#a)"><path fill="#0dc3ff" d="M43.4-3088.9s-231.3 157-507.1-94.1c-80.8-73.5-164.3-101.6-249.7-103.5l-11.5-514.9s-219.2 58.2-512.6-19-579.3 23.6-878.8 44.7-632.7-25.7-632.7-25.7v671.7c333.3 137.9 643.3 56.5 643.3 56.5 41.9-7.5 82-13.2 119.7-17.4l-135.6 1851.8a898.7 898.7 0 0 0 77.3 97l-13.4-3.6-72.7 993.1C-1812.9 76.1-1495-21.7-1495-21.7c126.1-23.8 234.7-24.7 310-20.1a580.7 580.7 0 0 1 168.2 36c118.5 44 367.4 110.2 550.3 63.3C-253.2 2.7-100.1 55-100.1 55L-39-997.6s-20 6.2-55.7 11.4z"/></g><path fill="none" stroke="#5d2d90" stroke-linecap="round" stroke-linejoin="round" stroke-width="3.59" d="M1570.5 711.4a28.7 28.7 0 0 1-6.3-34.5 28.5 28.5 0 0 0-5.5 42.8 28.7 28.7 0 0 0 42.8.1 29.7 29.7 0 0 0 4.1-5.9 28.7 28.7 0 0 1-35.1-2.5zM440.2 111.3a28.7 28.7 0 0 1-34.6 6.3 27.7 27.7 0 0 0 8 8 28.7 28.7 0 0 0 35-45.3 36.9 36.9 0 0 0-5.9-4.1 28.8 28.8 0 0 1-2.5 35.1zm1102.8 331l8.1 1.8 7.7-2.9-1.7 8.1 2.9 7.7-8.1-1.7-7.7 2.8 1.7-8-2.9-7.8zm-1437.4 5.8l8.1 1.8 7.7-2.9-1.7 8 2.8 7.8-8-1.8-7.7 2.9 1.7-8.1-2.9-7.7zM299 284.2l8 1.8 7.8-2.9-1.8 8 2.9 7.8-8.1-1.8-7.7 2.9 1.7-8.1-2.8-7.7zM749.1 49.4l8.1 1.8 7.7-2.9-1.7 8.1 2.9 7.7-8.1-1.8-7.7 2.9 1.7-8.1-2.9-7.7zm251.7 19.5l8 1.7 7.8-2.8-1.8 8 2.9 7.8-8.1-1.8-7.7 2.9 1.7-8.1-2.8-7.7zM732.2 681.7l8.1 1.7 7.7-2.9-1.7 8.1 2.8 7.7-8-1.7-7.7 2.9 1.7-8.1-2.9-7.7zm343.5 85.7l8 1.8 7.8-2.9-1.8 8.1 2.9 7.7-8.1-1.8-7.7 2.9 1.8-8-2.9-7.8zm-752.6-97.9l8.1 1.8 7.7-2.9-1.8 8.1 2.9 7.7-8-1.8-7.8 2.9 1.8-8-2.9-7.8zm988.8 75.2l8.1 1.8 7.7-2.9-1.7 8.1 2.8 7.7-8-1.8-7.8 2.9 1.8-8-2.9-7.8zm505-345l8 1.8 7.7-2.9-1.7 8.1 2.9 7.7-8.1-1.8-7.7 2.9 1.7-8.1-2.8-7.7zM1597.1 60.4l8.1 1.8 7.7-2.9-1.7 8.1 2.8 7.7-8-1.8-7.7 2.9 1.7-8-2.9-7.8zm213.5 637.1l3.5 15.4 11.2 11.1-15.4 3.4-11.1 11.2-3.4-15.4-11.3-11.1 15.4-3.4 11.1-11.2zm-386.9-88.4l3.5 15.4 11.2 11.1-15.4 3.5-11.1 11.2-3.5-15.4-11.2-11.1 15.4-3.5 11.1-11.2zm-861.4-426l3.5 15.4 11.2 11.1-15.4 3.5-11.1 11.2-3.5-15.4-11.2-11.1 15.4-3.4 11.1-11.3zM140.6 733.6l3.5 15.4 11.2 11.1-15.4 3.4-11.1 11.3-3.5-15.4-11.2-11.1 15.4-3.5 11.1-11.2zm358-29.1l3.5 15.4 11.2 11.1-15.4 3.5-11.1 11.2-3.5-15.4-11.2-11.1 15.4-3.4 11.1-11.3zm-267-656.7l-9.4 12.7-1.1 15.7-12.7-9.4-15.7-1.1 9.4-12.7 1.1-15.7 12.7 9.4 15.7 1.1zm1613.2 73.6l-9.4 12.6-1.2 15.8-12.6-9.4-15.8-1.2 9.5-12.6 1.1-15.8 12.6 9.5 15.8 1.1zm-157.6 208.2l-15.7-1.1-13.8 7.6 1-15.7-7.6-13.9 15.8 1.1 13.8-7.6-1.1 15.7 7.6 13.9z"/><circle cx="1690" cy="563.2" r="54" fill="none" stroke="#5d2d90" stroke-linecap="round" stroke-linejoin="round" stroke-width="3.59" transform="matrix(.95 -.33 .33 .95 -91.29 581.03)"/><path fill="none" stroke="#5d2d90" stroke-linecap="round" stroke-linejoin="round" stroke-width="3.59" d="M1695 539.6l-37.8-16.9m43.1 33.5l-54.3-24.3m45-7.2l-21.8-9.7m69.1 72l-37.8-16.7m41.7 7.2l-22-9.7m-45.2 9.9l-37.8-16.7m21.9 22.3l-21.9-9.7m95.2 22.8l-21.9-9.7"/><circle cx="166.8" cy="208.3" r="54" fill="none" stroke="#5d2d90" stroke-linecap="round" stroke-linejoin="round" stroke-width="3.59" transform="rotate(-78 166.673 208.271)"/><path fill="none" stroke="#5d2d90" stroke-linecap="round" stroke-linejoin="round" stroke-width="3.59" d="M149.1 191.9l-34 23.7m51-19.7l-48.8 34m17.1-42.3l-19.7 13.7m97.4-22.1l-33.8 23.9m27.6-32.1l-19.6 13.8m-14.8 43.9l-33.8 23.8m30.4-7.3L148.5 259m68.6-69.9l-19.6 13.8m17-20c32-8.3 54.8-10.8 56.8-5.1 2.8 8.2-40 30.6-95.6 50.1s-103.1 28.4-106 20.2c-1.9-5.4 15.5-16.7 43.2-29.3m1171-17.3l-151 54.3m195.9-7.7L1224 578.5m207.8-380.6c22.3 28.6 33 51.9 25.5 59.8-11.6 12.3-63.3-17.5-115.3-66.7s-84.7-99-73-111.4c7.7-8 32.5 2 63.3 23.7m78.9 94.4a53.5 53.5 0 1 0-77.8-73.6m-38.6 16.3s14.5 81.8 102.7 96.3"/><circle cx="363.5" cy="485" r="49.6" fill="none" stroke="#5d2d90" stroke-linecap="round" stroke-linejoin="round" stroke-width="3.59"/><circle cx="341.7" cy="463.3" r="8.6" fill="none" stroke="#5d2d90" stroke-linecap="round" stroke-linejoin="round" stroke-width="3.59"/><circle cx="391.9" cy="506" r="8.6" fill="none" stroke="#5d2d90" stroke-linecap="round" stroke-linejoin="round" stroke-width="3.59"/><circle cx="352.2" cy="506" r="17.5" fill="none" stroke="#5d2d90" stroke-linecap="round" stroke-linejoin="round" stroke-width="3.59"/><circle cx="393.3" cy="471.7" r="8.4" fill="none" stroke="#5d2d90" stroke-linecap="round" stroke-linejoin="round" stroke-width="3.59"/><text fill="#5d2d90" font-family="MuseoSansRounded-1000, Museo Sans Rounded" font-size="155" font-weight="100" transform="rotate(20.6 -624.796 2433.054)">4<tspan x="95.9" y="0" letter-spacing=".02em">0</tspan><tspan x="194.8" y="0" letter-spacing="0em">4</tspan></text><text fill="#5d2d90" font-family="MuseoSansRounded-500, Museo Sans Rounded" font-size="63.58" font-weight="500" transform="rotate(20.6 -884.926 2241.868)"><tspan letter-spacing="0em">l</tspan><tspan x="16.5" y="0">ost in spa</tspan><tspan x="288.3" y="0" letter-spacing="0em">c</tspan><tspan x="321.8" y="0" letter-spacing="0em">e</tspan></text></svg>