<svg xmlns="http://www.w3.org/2000/svg" width="1130.3" height="814.2" viewBox="0 0 1130.3 814.2"><path fill="#dd5b5b" d="M351.5 725.8c91.9-13.7 508.4-93.6 464.1-413.1v-.2c-.3-4.9-17.4-223.6-248.7-223.7h-.3c-6.4-.7-216-20.7-254 284.7 0 0-17.5 132.6 83 243.5l.4.5c2.5 4 30 51.8-47 101.6a3.7 3.7 0 0 0 2.5 6.7z"/><circle cx="566.8" cy="325.6" r="179.4" fill="#fff5db"/><path fill="#dd5b5b" d="M607.4 191.9S555.3 286 387 361.4c0 0-24.4-231.5 187.2-217.1s208.2 81.9 202.6 150.6l-5.5 68.7S717 342.5 607.4 191.9z"/><rect width="119.7" height="98.24" x="424.9" y="291.4" fill="#cbeaf3" stroke="#231f20" stroke-miterlimit="10" stroke-width="16" rx="43.6" ry="43.6"/><rect width="119.7" height="98.24" x="585.8" y="291.4" fill="#cbeaf3" stroke="#231f20" stroke-miterlimit="10" stroke-width="16" rx="43.6" ry="43.6"/><path fill="#cbeaf3" stroke="#231f20" stroke-miterlimit="10" stroke-width="16" d="M544.6 340.5s19.5-14.9 41.2 0"/><path fill="#fcf575" d="M250 210.3l-19.8-24.8-30.1-10.2 24.8-19.9 10.2-30.1 19.8 24.9 30.1 10.1-24.8 19.9-10.2 30.1zm665.3 137.5l-8.7-30.6-23.8-21 30.5-8.7 21.1-23.8 8.7 30.6 23.8 21-30.6 8.7-21 23.8zm-62.9 224.6l-9.9-12.4-15-5.1 12.4-9.9 5.1-15 9.9 12.4 15 5.1-12.4 9.9-5.1 15zM384.5 85.6l-5.7-14.8-12.9-9.4 14.9-5.8 9.4-12.8 5.7 14.8 12.8 9.4-14.8 5.8-9.4 12.8z"/></svg>