<svg id="Layer_1" data-name="Layer 1" xmlns="http://www.w3.org/2000/svg" width="1130.3" height="814.2" viewBox="0 0 1130.3 814.2"><title>face</title><path d="M351.5,725.8c91.9-13.7,508.4-93.6,464.1-413.1v-.2c-.3-4.9-17.4-223.6-248.7-223.7h-.3c-6.4-.7-216-20.7-254,284.7,0,0-17.5,132.6,83,243.5l.4.5c2.5,4,30,51.8-47,101.6A3.7,3.7,0,0,0,351.5,725.8Z" fill="#dd5b5b"/><circle cx="566.8" cy="325.6" r="179.4" fill="#fff5db"/><path d="M607.4,191.9S555.3,286,387,361.4c0,0-24.4-231.5,187.2-217.1s208.2,81.9,202.6,150.6l-5.5,68.7S717,342.5,607.4,191.9Z" fill="#dd5b5b"/><rect x="424.9" y="291.4" width="119.7" height="98.24" rx="43.6" ry="43.6" fill="#cbeaf3" stroke="#231f20" stroke-miterlimit="10" stroke-width="16"/><rect x="585.8" y="291.4" width="119.7" height="98.24" rx="43.6" ry="43.6" fill="#cbeaf3" stroke="#231f20" stroke-miterlimit="10" stroke-width="16"/><path d="M544.6,340.5s19.5-14.9,41.2,0" fill="#cbeaf3" stroke="#231f20" stroke-miterlimit="10" stroke-width="16"/><polygon points="250 210.3 230.2 185.5 200.1 175.3 224.9 155.4 235.1 125.3 254.9 150.2 285 160.3 260.2 180.2 250 210.3" fill="#fcf575"/><polygon points="915.3 347.8 906.6 317.2 882.8 296.2 913.3 287.5 934.4 263.7 943.1 294.3 966.9 315.3 936.3 324 915.3 347.8" fill="#fcf575"/><polygon points="852.4 572.4 842.5 560 827.5 554.9 839.9 545 845 530 854.9 542.4 869.9 547.5 857.5 557.4 852.4 572.4" fill="#fcf575"/><polygon points="384.5 85.6 378.8 70.8 365.9 61.4 380.8 55.6 390.2 42.8 395.9 57.6 408.7 67 393.9 72.8 384.5 85.6" fill="#fcf575"/></svg>