<svg id="Layer_1" data-name="Layer 1" xmlns="http://www.w3.org/2000/svg" xmlns:xlink="http://www.w3.org/1999/xlink" width="1130.3" height="814.2" viewBox="0 0 1130.3 814.2"><defs><clipPath id="clip-path"><circle cx="1298.7" cy="100.3" r="79" fill="none"/></clipPath></defs><title>face</title><g clip-path="url(#clip-path)"><path d="M984.8,351s-5.2-81.7,102.8-131.3c0,0,90.7-35.5,61.5-150.6,0,0-21.2-79.5,88.3-81.4a219.6,219.6,0,0,1,46.4,4.2c45.4,8.9,168.2,30.9,220-22V351Z" fill="#dcc9ed"/></g><path d="M373.4,734.8c88-13.1,487.1-89.7,444.7-395.7v-.2c-.3-4.7-16.7-214.2-238.3-214.3h-.3c-6.1-.7-206.9-19.9-243.3,272.7,0,0-16.8,127,79.5,233.3a1,1,0,0,1,.4.5c2.4,3.8,28.7,49.6-45.1,97.3C367.9,730.5,369.7,735.4,373.4,734.8Z" fill="#dd5b5b"/><circle cx="579.7" cy="351.4" r="171.9" fill="#fff5db"/><path d="M618.6,223.3s-49.9,90.2-211.2,162.4c0,0-23.3-221.8,179.4-208S786.3,256.2,781,322l-5.3,65.8S723.7,367.6,618.6,223.3Z" fill="#dd5b5b"/><rect x="421.9" y="303.6" width="133.3" height="109.4" rx="48.5" fill="#edeced" stroke="#5e2f8f" stroke-miterlimit="10" stroke-width="19.15"/><rect x="601.1" y="303.6" width="133.3" height="109.4" rx="48.5" fill="#edeced" stroke="#5e2f8f" stroke-miterlimit="10" stroke-width="19.15"/><path d="M555.2,358.3s21.7-16.7,45.9,0" fill="#edeced" stroke="#5e2f8f" stroke-miterlimit="10" stroke-width="19.15"/><polygon points="199.7 239.8 180.7 216 151.9 206.2 175.7 187.2 185.4 158.4 204.4 182.2 233.3 191.9 209.5 210.9 199.7 239.8" fill="#f9f07a"/><polygon points="970 372.7 961.6 343.4 938.8 323.2 968.1 314.9 988.3 292.1 996.6 321.4 1019.4 341.5 990.1 349.9 970 372.7" fill="#f9f07a"/><polygon points="909.8 587.9 900.3 576 885.8 571.1 897.7 561.6 902.6 547.2 912.1 559.1 926.5 564 914.6 573.5 909.8 587.9" fill="#f9f07a"/><polygon points="845.2 704.6 835.7 692.7 821.3 687.9 833.1 678.3 838 663.9 847.5 675.8 862 680.7 850.1 690.2 845.2 704.6" fill="#f9f07a"/><polygon points="930.1 197.4 920.6 185.5 906.2 180.6 918.1 171.1 923 156.7 932.5 168.6 946.9 173.5 935 183 930.1 197.4" fill="#f9f07a"/><polygon points="328.6 120.3 323.1 106.1 310.8 97.1 325 91.6 334 79.3 339.5 93.5 351.8 102.5 337.6 108 328.6 120.3" fill="#f9f07a"/><polygon points="189.9 512 184.4 497.8 172.1 488.8 186.3 483.3 195.3 471 200.8 485.2 213.1 494.2 198.9 499.7 189.9 512" fill="#f9f07a"/><polygon points="128.7 450 123.2 435.8 110.9 426.8 125.1 421.3 134.1 409 139.6 423.2 151.9 432.2 137.7 437.7 128.7 450" fill="#f9f07a"/></svg>