<svg id="Layer_1" data-name="Layer 1" xmlns="http://www.w3.org/2000/svg" xmlns:xlink="http://www.w3.org/1999/xlink" width="15.7in" height="1.8in" viewBox="0 0 1132.5 127"><defs><pattern id="stars_and_planet" data-name="stars and planet" width="94.5" height="63" patternTransform="translate(0 -21.2)" patternUnits="userSpaceOnUse" viewBox="0 0 94.5 63"><rect width="94.5" height="63" fill="none"/><polygon points="81.7 36.3 83.8 36.8 85.7 36.1 85.3 38.1 86 40.1 84 39.6 82 40.3 82.4 38.3 81.7 36.3" fill="none" stroke="#5d2e91" stroke-linecap="round" stroke-linejoin="round" stroke-width="0.91"/><circle cx="97.1" cy="56.9" r="13.7" transform="translate(11.7 130.2) rotate(-71)" fill="none" stroke="#5d2e91" stroke-linecap="round" stroke-linejoin="round" stroke-width="0.91"/><line x1="98.3" y1="50.9" x2="88.8" y2="46.6" fill="none" stroke="#5d2e91" stroke-linecap="round" stroke-linejoin="round" stroke-width="0.91"/><line x1="99.7" y1="55.1" x2="85.9" y2="49" fill="none" stroke="#5d2e91" stroke-linecap="round" stroke-linejoin="round" stroke-width="0.91"/><line x1="97.3" y1="47.1" x2="91.8" y2="44.7" fill="none" stroke="#5d2e91" stroke-linecap="round" stroke-linejoin="round" stroke-width="0.91"/><line x1="93.3" y1="60.6" x2="83.7" y2="56.4" fill="none" stroke="#5d2e91" stroke-linecap="round" stroke-linejoin="round" stroke-width="0.91"/><line x1="89.2" y1="62" x2="83.7" y2="59.6" fill="none" stroke="#5d2e91" stroke-linecap="round" stroke-linejoin="round" stroke-width="0.91"/><circle cx="2.6" cy="56.9" r="13.7" transform="translate(-52.1 40.8) rotate(-71)" fill="none" stroke="#5d2e91" stroke-linecap="round" stroke-linejoin="round" stroke-width="0.91"/><line x1="3.8" y1="50.9" x2="-5.7" y2="46.6" fill="none" stroke="#5d2e91" stroke-linecap="round" stroke-linejoin="round" stroke-width="0.91"/><line x1="5.2" y1="55.1" x2="-8.6" y2="49" fill="none" stroke="#5d2e91" stroke-linecap="round" stroke-linejoin="round" stroke-width="0.91"/><line x1="2.8" y1="47.1" x2="-2.7" y2="44.7" fill="none" stroke="#5d2e91" stroke-linecap="round" stroke-linejoin="round" stroke-width="0.91"/><line x1="14.9" y1="63" x2="5.2" y2="58.7" fill="none" stroke="#5d2e91" stroke-linecap="round" stroke-linejoin="round" stroke-width="0.91"/><line x1="15.8" y1="60.5" x2="10.3" y2="58.1" fill="none" stroke="#5d2e91" stroke-linecap="round" stroke-linejoin="round" stroke-width="0.91"/><line x1="13.4" y1="65.3" x2="7.8" y2="62.9" fill="none" stroke="#5d2e91" stroke-linecap="round" stroke-linejoin="round" stroke-width="0.91"/><path d="M79,13.3a7.2,7.2,0,0,1-1.6-8.7,9.5,9.5,0,0,0-2,2,7.3,7.3,0,0,0,11.5,8.9,6.5,6.5,0,0,0,1-1.5A7.3,7.3,0,0,1,79,13.3Z" fill="none" stroke="#5d2e91" stroke-linecap="round" stroke-linejoin="round" stroke-width="0.91"/><circle cx="97.1" cy="-6.1" r="13.7" transform="translate(71.2 87.7) rotate(-71)" fill="none" stroke="#5d2e91" stroke-linecap="round" stroke-linejoin="round" stroke-width="0.91"/><path d="M31.8,44.8a7.2,7.2,0,0,1-1.6-8.7,6.4,6.4,0,0,0-2,2,7.2,7.2,0,0,0,.6,8.8,7.3,7.3,0,0,0,10.9.1l1-1.5A7.2,7.2,0,0,1,31.8,44.8Z" fill="none" stroke="#5d2e91" stroke-linecap="round" stroke-linejoin="round" stroke-width="0.91"/><polygon points="34.5 4.8 36.5 5.3 38.5 4.6 38 6.6 38.8 8.6 36.7 8.1 34.8 8.8 35.2 6.8 34.5 4.8" fill="none" stroke="#5d2e91" stroke-linecap="round" stroke-linejoin="round" stroke-width="0.91"/><polygon points="61 44.2 61.9 48.1 64.7 50.9 60.8 51.8 58 54.6 57.1 50.7 54.3 47.9 58.2 47 61 44.2" fill="none" stroke="#5d2e91" stroke-linecap="round" stroke-linejoin="round" stroke-width="0.91"/><circle cx="49.8" cy="25.4" r="13.7" transform="translate(9.6 64.3) rotate(-71)" fill="none" stroke="#5d2e91" stroke-linecap="round" stroke-linejoin="round" stroke-width="0.91"/><line x1="51.1" y1="19.4" x2="41.5" y2="15.1" fill="none" stroke="#5d2e91" stroke-linecap="round" stroke-linejoin="round" stroke-width="0.91"/><line x1="52.4" y1="23.6" x2="38.7" y2="17.5" fill="none" stroke="#5d2e91" stroke-linecap="round" stroke-linejoin="round" stroke-width="0.91"/><line x1="50.1" y1="15.6" x2="44.5" y2="13.2" fill="none" stroke="#5d2e91" stroke-linecap="round" stroke-linejoin="round" stroke-width="0.91"/><line x1="62.1" y1="31.5" x2="52.5" y2="27.2" fill="none" stroke="#5d2e91" stroke-linecap="round" stroke-linejoin="round" stroke-width="0.91"/><line x1="63.1" y1="29" x2="57.5" y2="26.6" fill="none" stroke="#5d2e91" stroke-linecap="round" stroke-linejoin="round" stroke-width="0.91"/><line x1="46" y1="29.1" x2="36.4" y2="24.9" fill="none" stroke="#5d2e91" stroke-linecap="round" stroke-linejoin="round" stroke-width="0.91"/><line x1="42" y1="30.5" x2="36.4" y2="28.1" fill="none" stroke="#5d2e91" stroke-linecap="round" stroke-linejoin="round" stroke-width="0.91"/><line x1="60.6" y1="33.8" x2="55" y2="31.4" fill="none" stroke="#5d2e91" stroke-linecap="round" stroke-linejoin="round" stroke-width="0.91"/><polygon points="13.8 12.7 14.6 16.6 17.5 19.4 13.6 20.3 10.8 23.1 9.9 19.2 7 16.4 10.9 15.5 13.8 12.7" fill="none" stroke="#5d2e91" stroke-linecap="round" stroke-linejoin="round" stroke-width="0.91"/><circle cx="2.6" cy="-6.1" r="13.7" transform="translate(7.5 -1.7) rotate(-71)" fill="none" stroke="#5d2e91" stroke-linecap="round" stroke-linejoin="round" stroke-width="0.91"/><line x1="14.9" x2="5.2" y2="-4.3" fill="none" stroke="#5d2e91" stroke-linecap="round" stroke-linejoin="round" stroke-width="0.91"/><line x1="13.4" y1="2.3" x2="7.8" y2="-0.1" fill="none" stroke="#5d2e91" stroke-linecap="round" stroke-linejoin="round" stroke-width="0.91"/></pattern></defs><title>Artboard 6</title><rect width="1132.5" height="126.98" fill="url(#stars_and_planet)"/></svg>