<svg id="Layer_1" data-name="Layer 1" xmlns="http://www.w3.org/2000/svg" width="814.9" height="757.8" viewBox="0 0 814.9 757.8"><title>illustration</title><path d="M58,340.6S13.5,51,316.4,82.7,908.6,302.1,668.6,591.3C452.5,851.8,78.2,621.6,58,340.6Z" fill="#cab2d5"/><path d="M296.3,588.1c53.4-8,295.7-54.5,269.9-240.2h0c-.2-2.9-10.1-130.1-144.6-130.2h-.2c-3.7-.4-125.6-12-147.8,165.6,0,0-10.2,77.1,48.3,141.6l.3.3c1.4,2.3,17.4,30.1-27.4,59.1A2.1,2.1,0,0,0,296.3,588.1Z" fill="#dd5b5b"/><circle cx="421.5" cy="355.3" r="104.4" fill="#fff5db"/><path d="M445.1,277.6s-30.3,54.7-128.2,98.5c0,0-14.2-134.6,108.9-126.2s121.1,47.7,117.8,87.6l-3.2,39.9S508.9,365.2,445.1,277.6Z" fill="#dd5b5b"/><rect x="325.7" y="326.3" width="80.9" height="66.41" rx="29.5" fill="#edeced" stroke="#5e2f8f" stroke-miterlimit="10" stroke-width="11.62"/><rect x="434.5" y="326.3" width="80.9" height="66.41" rx="29.5" fill="#edeced" stroke="#5e2f8f" stroke-miterlimit="10" stroke-width="11.62"/><path d="M406.6,359.5s13.2-10.1,27.9,0" fill="#edeced" stroke="#5e2f8f" stroke-miterlimit="10" stroke-width="11.62"/><polygon points="190.8 287.6 179.3 273.1 161.8 267.2 176.2 255.7 182.1 238.2 193.7 252.6 211.2 258.5 196.7 270.1 190.8 287.6" fill="#f9f07a"/><polygon points="658.4 368.3 653.3 350.5 639.5 338.2 657.3 333.2 669.5 319.3 674.6 337.1 688.4 349.4 670.6 354.4 658.4 368.3" fill="#f9f07a"/><polygon points="621.8 498.9 616.1 491.7 607.3 488.7 614.5 483 617.5 474.2 623.3 481.4 632 484.4 624.8 490.2 621.8 498.9" fill="#f9f07a"/><polygon points="582.6 569.8 576.9 562.5 568.1 559.6 575.3 553.8 578.3 545.1 584.1 552.3 592.8 555.2 585.6 561 582.6 569.8" fill="#f9f07a"/><polygon points="634.2 261.9 628.4 254.6 619.7 251.7 626.9 245.9 629.8 237.2 635.6 244.4 644.4 247.3 637.2 253.1 634.2 261.9" fill="#f9f07a"/><polygon points="269 215 265.7 206.4 258.2 201 266.9 197.6 272.3 190.2 275.6 198.8 283.1 204.3 274.5 207.6 269 215" fill="#f9f07a"/><polygon points="184.8 452.8 181.5 444.2 174 438.7 182.7 435.4 188.1 428 191.5 436.6 198.9 442.1 190.3 445.4 184.8 452.8" fill="#f9f07a"/><polygon points="147.7 415.2 144.4 406.6 136.9 401.1 145.5 397.8 151 390.3 154.3 398.9 161.8 404.4 153.2 407.7 147.7 415.2" fill="#f9f07a"/></svg>