<svg id="Layer_1" data-name="Layer 1" xmlns="http://www.w3.org/2000/svg" xmlns:xlink="http://www.w3.org/1999/xlink" width="173.8" height="170.6" viewBox="0 0 173.8 170.6"><defs><clipPath id="clip-path"><circle cx="86.7" cy="85.3" r="79" fill="none"/></clipPath></defs><title>logo</title><g clip-path="url(#clip-path)"><path d="M-227.2,336s-5.2-81.7,102.8-131.3c0,0,90.6-35.5,61.5-150.5,0,0-21.2-79.6,88.2-81.5a218.4,218.4,0,0,1,46.4,4.2c45.4,8.9,168.2,30.9,220-22V336Z" fill="#dcc9ed"/></g><path d="M51.5,145.3c15.8-2.4,87.5-16.1,79.9-71.1h0c-.1-.9-3-38.5-42.8-38.5h-.1c-1.1-.2-37.2-3.6-43.7,49a56.4,56.4,0,0,0,14.3,41.9h.1c.4.6,5.1,8.9-8.1,17.4A.6.6,0,0,0,51.5,145.3Z" fill="#dd5b5b"/><circle cx="88.5" cy="76.4" r="30.9" fill="#fff5db"/><path d="M95.5,53.4S86.6,69.6,57.6,82.6c0,0-4.2-39.9,32.2-37.4s35.9,14.1,34.9,25.9l-.9,11.8S114.4,79.3,95.5,53.4Z" fill="#dd5b5b"/><rect x="64.1" y="70.5" width="20.6" height="16.91" rx="7.1" ry="7.1" fill="#cbeaf3" stroke="#231f20" stroke-miterlimit="10" stroke-width="3"/><rect x="91.8" y="70.5" width="20.6" height="16.91" rx="7.1" ry="7.1" fill="#cbeaf3" stroke="#231f20" stroke-miterlimit="10" stroke-width="3"/><path d="M84.7,79a6.1,6.1,0,0,1,7.1,0" fill="#cbeaf3" stroke="#231f20" stroke-miterlimit="10" stroke-width="3"/><polygon points="34 56.6 30.6 52.3 25.4 50.5 29.7 47.1 31.5 41.9 34.9 46.2 40.1 48 35.8 51.4 34 56.6" fill="#fcf575"/><polygon points="148.5 80.2 147 75 142.9 71.4 148.2 69.9 151.8 65.8 153.3 71 157.4 74.6 152.2 76.1 148.5 80.2" fill="#fcf575"/><polygon points="137.7 118.9 136 116.8 133.4 115.9 135.6 114.2 136.4 111.6 138.1 113.7 140.7 114.6 138.6 116.3 137.7 118.9" fill="#fcf575"/><polygon points="57.2 35.1 56.2 32.5 54 30.9 56.5 29.9 58.2 27.7 59.1 30.3 61.3 31.9 58.8 32.9 57.2 35.1" fill="#fcf575"/></svg>