<svg id="Layer_1" data-name="Layer 1" xmlns="http://www.w3.org/2000/svg" width="1130.3" height="814.2" viewBox="0 0 1130.3 814.2"><title>purple-waves</title><path d="M298.9,814.2s-8.3-130.8,164.7-210.4c0,0,145.2-56.8,98.5-241.1,0,0-34-127.4,141.4-130.6a350.4,350.4,0,0,1,74.4,6.7c72.7,14.4,269.5,49.5,352.4-35.2V814.2Z" fill="#dcc9ed"/><path d="M187.5,814.2S295.9,659.7,523.9,635.5c13.8-1.5,52.1-4.1,65.9-5.5,61.1-6.2,125.6-11.3,159.5-132.9C779,390.8,877.2,318.3,987.4,323.5c40.2,1.9,87.5,9.1,142.9,23.6V814.2Z" fill="#a76cdd"/></svg>